<svg xmlns="http://www.w3.org/2000/svg" data-name="Layer 1" viewBox="0 0 512 512"><path fill="#4ebaea" d="M438.71561 324.0389q-.15087 0-.30224-.00586a7.5 7.5 0 0 1-7.19727-7.791l1.18848-29.97657a7.5 7.5 0 0 1 14.98828.59375l-1.18848 29.97657A7.50046 7.50046 0 0 1 438.71561 324.0389zM431.58378 483.8973c-.10059 0-.20118-.00195-.30274-.00586a7.5 7.5 0 0 1-7.19678-7.7915l1.189-29.97657a7.5 7.5 0 0 1 14.98828.59473l-1.189 29.97656A7.5 7.5 0 0 1 431.58378 483.8973zM98.88065 325.71859q-.15088 0-.30225-.00586a7.5 7.5 0 0 1-7.19726-7.791l1.18848-29.97656a7.5 7.5 0 0 1 14.98828.59375l-1.18848 29.97656A7.50047 7.50047 0 0 1 98.88065 325.71859zM168.42948 338.48421q-.15089 0-.30225-.00586a7.5 7.5 0 0 1-7.19726-7.791l1.18847-29.97656a7.5 7.5 0 1 1 14.98829.59375l-1.18848 29.97656A7.50046 7.50046 0 0 1 168.42948 338.48421zM338.3743 331.25765q-.15087 0-.30224-.00586a7.5 7.5 0 0 1-7.19727-7.791l1.18848-29.97657a7.5 7.5 0 0 1 14.98828.59375l-1.18848 29.97657A7.50046 7.50046 0 0 1 338.3743 331.25765zM91.74881 475.57747q-.15087 0-.30224-.00585a7.5 7.5 0 0 1-7.19727-7.791L85.43778 437.804a7.5 7.5 0 1 1 14.98828.59375l-1.18848 29.97656A7.50045 7.50045 0 0 1 91.74881 475.57747zM231.29764 508.34261c-.10058 0-.20117-.00195-.30273-.00586a7.5 7.5 0 0 1-7.19678-7.7915l1.18848-29.97608a7.5 7.5 0 0 1 14.98828.59424L238.78641 501.14A7.50038 7.50038 0 0 1 231.29764 508.34261zM292.29764 468.34261c-.10058 0-.20117-.00195-.30273-.00586a7.5 7.5 0 0 1-7.19678-7.7915l1.18848-29.97608a7.5 7.5 0 0 1 14.98828.59424L299.78641 461.14A7.50038 7.50038 0 0 1 292.29764 468.34261zM361.243 491.11605c-.10059 0-.20118-.00195-.30274-.00586a7.5 7.5 0 0 1-7.19678-7.7915l1.18848-29.97608a7.5 7.5 0 0 1 14.98828.59424l-1.18847 29.97656A7.50039 7.50039 0 0 1 361.243 491.11605zM65.29862 385.45882q-.15088 0-.30225-.00586a7.5 7.5 0 0 1-7.19726-7.791l1.18847-29.97656a7.5 7.5 0 0 1 14.98829.59375L72.78739 378.2557A7.50046 7.50046 0 0 1 65.29862 385.45882zM134.84745 418.224c-.10059 0-.20117-.00195-.30274-.00586a7.49989 7.49989 0 0 1-7.19677-7.791l1.18847-29.97656a7.5 7.5 0 1 1 14.98828.59473l-1.18847 29.97607A7.50039 7.50039 0 0 1 134.84745 418.224zM154.84745 508.224c-.10059 0-.20117-.00195-.30274-.00586a7.49989 7.49989 0 0 1-7.19677-7.791l1.18847-29.97656a7.5 7.5 0 1 1 14.98828.59473l-1.18847 29.97607A7.50039 7.50039 0 0 1 154.84745 508.224zM354.79227 410.9974c-.10058 0-.20117-.002-.30273-.00586A7.50005 7.50005 0 0 1 347.29276 403.2l1.189-29.97656a7.5 7.5 0 1 1 14.98828.59473l-1.189 29.97656A7.5 7.5 0 0 1 354.79227 410.9974zM405.13358 393.77865q-.15089 0-.30225-.00586a7.5 7.5 0 0 1-7.19726-7.791l1.18848-29.97656a7.5 7.5 0 1 1 14.98828.59375l-1.18848 29.97656A7.50047 7.50047 0 0 1 405.13358 393.77865z"/><path fill="#fdd402" d="M299.99606,217.97292,196.40065,298.1314a5,5,0,0,0-.71323,7.23533l37.47654,43.098a5,5,0,0,1,.83475,5.22212l-36.51137,86.665a5,5,0,0,0,7.99235,5.62154l99.89307-91.86595a5,5,0,0,0,.38846-6.96121L268.225,303.97963a5,5,0,0,1-.62933-5.6514l39.86251-74.03038A5,5,0,0,0,299.99606,217.97292Z"/><path fill="#fbbf13" d="M263.99869,353.68685a5,5,0,0,0-.83471-5.22211l-37.47657-43.098a5,5,0,0,1,.71326-7.23535l70.79883-54.78162,10.25873-19.05194a5,5,0,0,0-7.46216-6.32489l-103.5954,80.15845a5,5,0,0,0-.71326,7.23535l37.47657,43.098a5,5,0,0,1,.83471,5.22211l-36.51135,86.665a5,5,0,0,0,7.99237,5.62152l32.061-29.48468Z"/><path fill="#e0e0e2" d="M399.87683,115.75522A90.05734,90.05734,0,0,0,402.65249,92.25c-.65767-48.35916-40.22687-87.93032-88.58609-88.58422A89.73988,89.73988,0,0,0,237.982,43.80746a85.40849,85.40849,0,0,0-112.95762,69.75241,75.86061,75.86061,0,0,0-64.03933,74.92641v.00018a75.84606,75.84606,0,0,0,75.84606,75.84606H378.36082a75.84607,75.84607,0,0,0,75.84607-75.84606v-.00018A75.86483,75.86483,0,0,0,399.87683,115.75522Z"/><path fill="#d9d8da" d="M429.87683 135.75519c1.4613.43164 2.89758.9201 4.32068 1.43591q-1.81238-1.97049-3.75555-3.81317C430.262 134.17365 430.07764 134.96765 429.87683 135.75519zM90.98505 208.48645v-.00018a75.86063 75.86063 0 0 1 64.03936-74.92639A85.4086 85.4086 0 0 1 267.98206 63.80743a89.7399 89.7399 0 0 1 76.08435-40.14166 88.748 88.748 0 0 1 32.328 6.553A89.61819 89.61819 0 0 0 237.98206 43.80743a85.4086 85.4086 0 0 0-112.95765 69.75245 75.86063 75.86063 0 0 0-64.03936 74.92639v.00018a75.87193 75.87193 0 0 0 50.01989 71.3291A75.56376 75.56376 0 0 1 90.98505 208.48645z"/></svg>