<svg xmlns="http://www.w3.org/2000/svg" width="400" height="400" enable-background="new 0 0 400 400" viewBox="0 0 400 400"><path fill="#FFBE55" d="M347.062,200.001c0-14.445,26.171-32.134,22.612-45.457
				c-3.686-13.786-35.298-16.007-42.282-28.076c-7.085-12.241,6.723-40.713-3.21-50.648c-9.936-9.936-38.408,3.871-50.65-3.211
				c-12.069-6.983-14.29-38.598-28.074-42.283c-13.323-3.56-31.012,22.611-45.457,22.611s-32.134-26.171-45.455-22.611
				c-13.788,3.686-16.007,35.3-28.077,42.283c-12.241,7.085-40.711-6.725-50.647,3.211c-9.935,9.935,3.87,38.407-3.212,50.649
				c-6.981,12.067-38.598,14.288-42.283,28.074c-3.558,13.323,22.613,31.012,22.613,45.457c0,14.442-26.171,32.132-22.613,45.455
				c3.686,13.785,35.302,16.006,42.283,28.075c7.085,12.243-6.723,40.713,3.212,50.648c9.936,9.936,38.406-3.871,50.65,3.211
				c12.067,6.983,14.286,38.598,28.074,42.283c13.321,3.56,31.011-22.613,45.455-22.613s32.134,26.173,45.457,22.613
				c13.784-3.686,16.005-35.3,28.076-42.283c12.241-7.085,40.713,6.725,50.648-3.211c9.934-9.936-3.871-38.405,3.21-50.65
				c6.983-12.067,38.596-14.288,42.282-28.073C373.233,232.133,347.062,214.443,347.062,200.001z" opacity=".6"/><path fill="#FFBE55" d="M313.531,200.001c0,57.342-42.515,104.756-97.749,112.438c-5.156,0.724-10.424,1.09-15.778,1.09
				c-62.702,0-113.54-50.829-113.54-113.527c0-62.704,50.837-113.531,113.54-113.531c5.354,0,10.623,0.368,15.778,1.089
				C271.017,95.24,313.531,142.655,313.531,200.001z"/></svg>